<?xml version="1.0" encoding="UTF-8" standalone="no"?>
<!-- Svg Vector Icons : http://www.onlinewebfonts.com/icon -->

<svg
   xmlns:dc="http://purl.org/dc/elements/1.1/"
   xmlns:cc="http://creativecommons.org/ns#"
   xmlns:rdf="http://www.w3.org/1999/02/22-rdf-syntax-ns#"
   xmlns:svg="http://www.w3.org/2000/svg"
   xmlns="http://www.w3.org/2000/svg"
   xmlns:sodipodi="http://sodipodi.sourceforge.net/DTD/sodipodi-0.dtd"
   xmlns:inkscape="http://www.inkscape.org/namespaces/inkscape"
   version="1.1"
   x="0px"
   y="0px"
   viewBox="0 0 215.92714 259.96356"
   enable-background="new 0 0 1000 1000"
   xml:space="preserve"
   id="svg3819"
   sodipodi:docname="antenna2.svg"
   inkscape:version="0.92.3 (2405546, 2018-03-11)"
   width="215.92714"
   height="259.96356"><defs
   id="defs3823" /><sodipodi:namedview
   pagecolor="#ffffff"
   bordercolor="#666666"
   borderopacity="1"
   objecttolerance="10"
   gridtolerance="10"
   guidetolerance="10"
   inkscape:pageopacity="0"
   inkscape:pageshadow="2"
   inkscape:window-width="1853"
   inkscape:window-height="1025"
   id="namedview3821"
   showgrid="false"
   inkscape:zoom="1.688"
   inkscape:cx="54.156091"
   inkscape:cy="122.28231"
   inkscape:window-x="67"
   inkscape:window-y="27"
   inkscape:window-maximized="1"
   inkscape:current-layer="svg3819"
   fit-margin-top="0"
   fit-margin-left="0"
   fit-margin-right="0"
   fit-margin-bottom="0" />
<metadata
   id="metadata3813"> Svg Vector Icons : http://www.onlinewebfonts.com/icon <rdf:RDF><cc:Work
     rdf:about=""><dc:format>image/svg+xml</dc:format><dc:type
       rdf:resource="http://purl.org/dc/dcmitype/StillImage" /><dc:title></dc:title></cc:Work></rdf:RDF></metadata>

<g
   id="g3831"
   transform="matrix(0.77406201,0,0,0.77406201,-258.11634,681.74965)"
   style="fill:#ffffff"><path
     d="m 836.8,467.2 c 0.2,-5.8 0.3,-11.1 0.3,-15.3 0,-69.8 -27.2,-135.4 -76.5,-184.8 -49.4,-49.4 -115,-76.5 -184.8,-76.5 -54.1,0 -107.3,18.4 -153.8,53.2 -31.8,23.8 -58.5,54.1 -77.7,87.7 -21.1,-11 -44.5,-16.7 -68.7,-16.7 -38.8,0 -76.1,18 -105,50.7 -19.3,21.8 -33,48.3 -39.7,75.9 C 98.2,454.3 69,476.5 47.9,504.9 23.1,538 10,577.4 10,618.8 10,723.9 95.5,809.4 200.6,809.4 v -0.5 H 819 v 0.3 c 94.3,0 171,-76.7 171,-171 0,-88 -67.6,-161.5 -153.2,-171 z m -11,302.2 v 0 l -636.9,-0.1 c -77.8,-6 -139.3,-71.2 -139.3,-150.6 0,-65.5 41.3,-123.6 103.2,-144.3 0.2,-0.1 0.4,-0.2 0.6,-0.3 6.1,-1.7 10.9,-6.8 12,-13.4 8.8,-52.9 54.7,-106.4 110.1,-106.4 22.7,0 44.4,6.9 62.9,19.9 1.8,1.7 4,3.1 6.6,4 v 0 c 9.7,3.6 20.5,-0.9 24.8,-10.3 C 407.4,287 491.3,230 575.8,230 c 122.3,0 221.7,99.5 221.7,221.7 0,8.3 -0.4,21.3 -1.2,32.7 -0.7,10.2 6.4,19.2 16.5,20.9 v 0 c 1.8,0.3 3.5,0.3 5.2,0.2 v 0.1 c 72.5,0 132.4,59.9 132.4,132.4 0,70.4 -55.3,127.9 -124.6,131.4 z"
     id="path3829"
     inkscape:connector-curvature="0"
     style="fill:#ffffff" /></g><path
   style="fill:#3b0822;fill-opacity:1;stroke-width:1.08398831"
   d="m 4.3200116,255.69472 c 11.7803704,-11.47198 64.7418274,-59.7484 65.5467324,-59.7484 0.508184,0 16.386628,14.268 35.285446,31.70666 l 34.3615,31.70666 -15.50078,0.30196 -15.5008,0.30198 -4.40853,-4.2177 C 86.996425,239.37932 72.783203,234.73464 57.40915,240.48682 c -5.628815,2.106 -18.989943,11.72221 -23.734405,17.082 -1.93562,2.18667 -3.055099,2.33281 -17.869865,2.33281 H 0 Z M 118.29114,192.11232 C 89.302393,186.65364 62.401176,170.2847 45.619813,147.89304 22.872326,117.54067 16.070052,78.363128 26.427177,37.353459 29.393918,25.606468 38.907355,0.82843398 40.450831,0.82843398 c 0.392639,0 39.933894,39.22227902 87.869459,87.16062302 l 87.15558,87.160623 -6.40099,3.217 c -8.64369,4.34414 -20.44167,8.50297 -33.50067,11.80912 -13.86721,3.51077 -43.58728,4.51549 -57.28307,1.93652 z m 48.61116,-21.70387 c 4.76955,-0.97729 9.02633,-2.10732 9.4595,-2.51117 0.43318,-0.40384 -28.20243,-29.72122 -63.63469,-65.14972 C 69.922049,59.947013 48.113246,38.859902 47.733871,39.905042 c -4.385317,12.081053 -6.04667,36.87206 -3.461131,51.647775 5.493143,31.391973 24.029863,56.985013 51.09505,70.545273 8.29144,4.15419 22.89661,8.71283 31.96894,9.97832 9.50671,1.32609 28.95486,0.50622 39.56557,-1.66796 z m -23.1069,-98.379466 -13.31848,-13.35053 27.61683,-17.613039 27.61683,-17.613043 -1.11876,-3.209279 c -3.54523,-10.169855 7.25431,-22.059478 18.17592,-20.01057002 2.06057,0.386564 5.41356,2.16655002 7.45109,3.95552502 6.985,6.132917 7.62402,15.166085 1.56133,22.071102 -3.92584,4.471282 -9.30104,6.437301 -14.97777,5.478223 l -4.20059,-0.709685 -17.1857,27.164966 c -9.45214,14.94074 -17.43692,27.169895 -17.74397,27.175922 -0.30704,0.0065 -6.55157,-5.996797 -13.87673,-13.339592 z"
   id="path911"
   inkscape:connector-curvature="0" /></svg>