<?xml version="1.0" encoding="UTF-8" standalone="no"?>
<!-- Svg Vector Icons : http://www.onlinewebfonts.com/icon -->

<svg
   xmlns:dc="http://purl.org/dc/elements/1.1/"
   xmlns:cc="http://creativecommons.org/ns#"
   xmlns:rdf="http://www.w3.org/1999/02/22-rdf-syntax-ns#"
   xmlns:svg="http://www.w3.org/2000/svg"
   xmlns="http://www.w3.org/2000/svg"
   xmlns:sodipodi="http://sodipodi.sourceforge.net/DTD/sodipodi-0.dtd"
   xmlns:inkscape="http://www.inkscape.org/namespaces/inkscape"
   version="1.1"
   x="0px"
   y="0px"
   viewBox="0 0 247.02916 296.84262"
   enable-background="new 0 0 1000 1000"
   xml:space="preserve"
   id="svg3819"
   sodipodi:docname="water.svg"
   inkscape:version="0.92.3 (2405546, 2018-03-11)"
   width="247.02916"
   height="296.84262"><defs
   id="defs3823" /><sodipodi:namedview
   pagecolor="#ffffff"
   bordercolor="#666666"
   borderopacity="1"
   objecttolerance="10"
   gridtolerance="10"
   guidetolerance="10"
   inkscape:pageopacity="0"
   inkscape:pageshadow="2"
   inkscape:window-width="1853"
   inkscape:window-height="1025"
   id="namedview3821"
   showgrid="false"
   inkscape:zoom="1.688"
   inkscape:cx="62.505402"
   inkscape:cy="146.77492"
   inkscape:window-x="67"
   inkscape:window-y="27"
   inkscape:window-maximized="1"
   inkscape:current-layer="svg3819"
   fit-margin-top="0"
   fit-margin-left="0"
   fit-margin-right="0"
   fit-margin-bottom="0" />
<metadata
   id="metadata3813"> Svg Vector Icons : http://www.onlinewebfonts.com/icon <rdf:RDF><cc:Work
     rdf:about=""><dc:format>image/svg+xml</dc:format><dc:type
       rdf:resource="http://purl.org/dc/dcmitype/StillImage" /><dc:title></dc:title></cc:Work></rdf:RDF></metadata>

<g
   id="g3831"
   transform="matrix(0.77406201,0,0,0.77406201,-249.76703,694.13608)"
   style="fill:#ffffff"><path
     d="m 836.8,467.2 c 0.2,-5.8 0.3,-11.1 0.3,-15.3 0,-69.8 -27.2,-135.4 -76.5,-184.8 -49.4,-49.4 -115,-76.5 -184.8,-76.5 -54.1,0 -107.3,18.4 -153.8,53.2 -31.8,23.8 -58.5,54.1 -77.7,87.7 -21.1,-11 -44.5,-16.7 -68.7,-16.7 -38.8,0 -76.1,18 -105,50.7 -19.3,21.8 -33,48.3 -39.7,75.9 C 98.2,454.3 69,476.5 47.9,504.9 23.1,538 10,577.4 10,618.8 10,723.9 95.5,809.4 200.6,809.4 v -0.5 H 819 v 0.3 c 94.3,0 171,-76.7 171,-171 0,-88 -67.6,-161.5 -153.2,-171 z m -11,302.2 v 0 l -636.9,-0.1 c -77.8,-6 -139.3,-71.2 -139.3,-150.6 0,-65.5 41.3,-123.6 103.2,-144.3 0.2,-0.1 0.4,-0.2 0.6,-0.3 6.1,-1.7 10.9,-6.8 12,-13.4 8.8,-52.9 54.7,-106.4 110.1,-106.4 22.7,0 44.4,6.9 62.9,19.9 1.8,1.7 4,3.1 6.6,4 v 0 c 9.7,3.6 20.5,-0.9 24.8,-10.3 C 407.4,287 491.3,230 575.8,230 c 122.3,0 221.7,99.5 221.7,221.7 0,8.3 -0.4,21.3 -1.2,32.7 -0.7,10.2 6.4,19.2 16.5,20.9 v 0 c 1.8,0.3 3.5,0.3 5.2,0.2 v 0.1 c 72.5,0 132.4,59.9 132.4,132.4 0,70.4 -55.3,127.9 -124.6,131.4 z"
     id="path3829"
     inkscape:connector-curvature="0"
     style="fill:#ffffff" /></g><path
   style="fill:#3b0822;fill-opacity:1;stroke-width:1.23696685"
   d="m 4.92967,291.9713 c 13.44289,-13.09097 73.878563,-68.18042 74.797063,-68.18042 0.5799,0 18.69921,16.28157 40.265147,36.18128 l 39.21078,36.18128 -17.68834,0.34458 -17.68835,0.34459 -5.0307,-4.81292 C 99.273863,273.35338 83.054783,268.05322 65.51105,274.61718 c -6.42318,2.40321 -21.66991,13.37652 -27.08394,19.49271 -2.20878,2.49526 -3.48625,2.66203 -20.39176,2.66203 H 0 Z M 135.82019,219.55962 C 101.54818,213.05127 72.171983,195.22646 52.33761,168.90425 31.52041,141.27774 22.27062,107.65632 25.40959,71.025473 26.89528,53.687943 34.70451,22.269313 38.46318,18.507441 39.08589,17.884191 228.184,206.61556 228.184,207.8603 c 0,1.10981 -21.21298,7.94975 -32.16114,10.37009 -12.70616,2.80899 -48.27503,3.59432 -60.20267,1.32923 z m 45.18405,-23.63164 c 0.37732,-0.37733 -28.79143,-30.17074 -64.81946,-66.20759 l -65.50552,-65.521537 -1.02999,6.50573 c -1.62832,10.28502 -0.0724,31.150607 3.30493,44.319587 13.207223,51.49852 58.8889,84.45402 113.87865,82.15392 7.41694,-0.31024 13.79406,-0.87279 14.17139,-1.25011 z M 151.07456,95.347853 c -13.77992,-13.81592 -14.41462,-14.67209 -12.29731,-16.58823 1.2279,-1.11123 4.80804,-2.70926 7.95586,-3.55118 14.75111,-3.94532 28.70695,10.65853 24.51011,25.648197 -0.81593,2.9142 -2.41844,6.14466 -3.56115,7.17879 -1.8986,1.7182 -3.32977,0.62483 -16.60751,-12.687577 z m 38.27816,-3.60318 c -2.16016,-19.08992 -15.36909,-32.29885 -34.45901,-34.45902 l -7.11256,-0.80485 v -9.77856 -9.77856 l 6.49408,0.76549 c 32.42759,3.82244 50.65945,22.02267 54.76905,54.67398 l 0.81737,6.49408 h -9.85205 -9.85203 z m 37.57284,1.23696 c -0.0624,-17.07347 -8.06032,-36.55006 -20.33986,-49.5319 -13.11932,-13.86965 -30.03098,-21.9062 -49.21051,-23.38522 l -9.59404,-0.73984 V 9.6122813 c 0,-11.15254 -1.25637,-10.42093003 14.50225,-8.44497 21.1899,2.65699 40.07904,11.3878297 54.60359,25.2385617 17.39398,16.58705 26.81323,36.83381 29.24619,62.86486 l 0.89598,9.5865 h -10.04107 -10.04106 l -0.0215,-5.8756 z"
   id="path879"
   inkscape:connector-curvature="0" /></svg>