<?xml version="1.0" encoding="UTF-8" standalone="no"?>
<!-- Created with Inkscape (http://www.inkscape.org/) -->

<svg
   xmlns:dc="http://purl.org/dc/elements/1.1/"
   xmlns:cc="http://creativecommons.org/ns#"
   xmlns:rdf="http://www.w3.org/1999/02/22-rdf-syntax-ns#"
   xmlns:svg="http://www.w3.org/2000/svg"
   xmlns="http://www.w3.org/2000/svg"
   xmlns:sodipodi="http://sodipodi.sourceforge.net/DTD/sodipodi-0.dtd"
   xmlns:inkscape="http://www.inkscape.org/namespaces/inkscape"
   width="202.59264mm"
   height="101.29762mm"
   viewBox="0 0 202.59264 101.29762"
   version="1.1"
   id="svg8"
   inkscape:version="0.92.3 (2405546, 2018-03-11)"
   sodipodi:docname="bat2.svg">
  <defs
     id="defs2" />
  <sodipodi:namedview
     id="base"
     pagecolor="#ffffff"
     bordercolor="#666666"
     borderopacity="1.0"
     inkscape:pageopacity="0.0"
     inkscape:pageshadow="2"
     inkscape:zoom="0.7"
     inkscape:cx="410.38199"
     inkscape:cy="104.15669"
     inkscape:document-units="mm"
     inkscape:current-layer="layer1"
     showgrid="false"
     inkscape:window-width="1255"
     inkscape:window-height="719"
     inkscape:window-x="500"
     inkscape:window-y="135"
     inkscape:window-maximized="0"
     fit-margin-top="0"
     fit-margin-left="0"
     fit-margin-right="0"
     fit-margin-bottom="0" />
  <metadata
     id="metadata5">
    <rdf:RDF>
      <cc:Work
         rdf:about="">
        <dc:format>image/svg+xml</dc:format>
        <dc:type
           rdf:resource="http://purl.org/dc/dcmitype/StillImage" />
        <dc:title></dc:title>
      </cc:Work>
    </rdf:RDF>
  </metadata>
  <g
     inkscape:label="Calque 1"
     inkscape:groupmode="layer"
     id="layer1"
     transform="translate(-4.157748,-113.68155)">
    <path
       style="fill:#3b0822;fill-opacity:1;stroke-width:0.84414685"
       d="M 4.157748,164.33036 V 113.68155 H 92.79317 181.4286 v 50.64881 50.64881 H 92.79317 4.157748 Z m 160.387912,0 V 130.56448 H 92.79317 21.040686 v 33.76588 33.76587 h 71.752484 71.75249 z m -135.063505,0 v -25.32441 h 12.662203 12.662203 v 25.32441 25.32441 H 42.144358 29.482155 Z m 33.765875,0 v -25.32441 h 12.662203 12.662203 v 25.32441 25.32441 H 75.910233 63.24803 Z m 126.62203,0 v -25.32441 l 4.0097,10e-4 c 5.27383,0.002 9.55248,2.22005 11.39468,5.90772 1.25369,2.50962 1.47594,5.43323 1.47594,19.41538 0,13.98214 -0.22225,16.90576 -1.47594,19.41538 -1.8422,3.68766 -6.12085,5.90599 -11.39468,5.90772 l -4.0097,10e-4 z"
       id="path4595"
       inkscape:connector-curvature="0" />
  </g>
</svg>
