<?xml version="1.0" encoding="UTF-8" standalone="no"?>
<!-- Svg Vector Icons : http://www.onlinewebfonts.com/icon -->

<svg
   xmlns:dc="http://purl.org/dc/elements/1.1/"
   xmlns:cc="http://creativecommons.org/ns#"
   xmlns:rdf="http://www.w3.org/1999/02/22-rdf-syntax-ns#"
   xmlns:svg="http://www.w3.org/2000/svg"
   xmlns="http://www.w3.org/2000/svg"
   xmlns:sodipodi="http://sodipodi.sourceforge.net/DTD/sodipodi-0.dtd"
   xmlns:inkscape="http://www.inkscape.org/namespaces/inkscape"
   version="1.1"
   x="0px"
   y="0px"
   viewBox="0 0 148.68246 154.78776"
   enable-background="new 0 0 1000 1000"
   xml:space="preserve"
   id="svg3819"
   sodipodi:docname="callendar.svg"
   inkscape:version="0.92.3 (2405546, 2018-03-11)"
   width="148.68246"
   height="154.78777"><defs
   id="defs3823" /><sodipodi:namedview
   pagecolor="#ffffff"
   bordercolor="#666666"
   borderopacity="1"
   objecttolerance="10"
   gridtolerance="10"
   guidetolerance="10"
   inkscape:pageopacity="0"
   inkscape:pageshadow="2"
   inkscape:window-width="1853"
   inkscape:window-height="1025"
   id="namedview3821"
   showgrid="false"
   inkscape:zoom="1.688"
   inkscape:cx="12.4893"
   inkscape:cy="68.883308"
   inkscape:window-x="67"
   inkscape:window-y="27"
   inkscape:window-maximized="1"
   inkscape:current-layer="svg3819"
   fit-margin-top="0"
   fit-margin-left="0"
   fit-margin-right="0"
   fit-margin-bottom="0" />
<metadata
   id="metadata3813"> Svg Vector Icons : http://www.onlinewebfonts.com/icon <rdf:RDF><cc:Work
     rdf:about=""><dc:format>image/svg+xml</dc:format><dc:type
       rdf:resource="http://purl.org/dc/dcmitype/StillImage" /><dc:title></dc:title></cc:Work></rdf:RDF></metadata>

<g
   id="g3831"
   transform="matrix(0.77406201,0,0,0.77406201,-299.78314,629.97286)"
   style="fill:#ffffff"><path
     d="m 836.8,467.2 c 0.2,-5.8 0.3,-11.1 0.3,-15.3 0,-69.8 -27.2,-135.4 -76.5,-184.8 -49.4,-49.4 -115,-76.5 -184.8,-76.5 -54.1,0 -107.3,18.4 -153.8,53.2 -31.8,23.8 -58.5,54.1 -77.7,87.7 -21.1,-11 -44.5,-16.7 -68.7,-16.7 -38.8,0 -76.1,18 -105,50.7 -19.3,21.8 -33,48.3 -39.7,75.9 C 98.2,454.3 69,476.5 47.9,504.9 23.1,538 10,577.4 10,618.8 10,723.9 95.5,809.4 200.6,809.4 v -0.5 H 819 v 0.3 c 94.3,0 171,-76.7 171,-171 0,-88 -67.6,-161.5 -153.2,-171 z m -11,302.2 v 0 l -636.9,-0.1 c -77.8,-6 -139.3,-71.2 -139.3,-150.6 0,-65.5 41.3,-123.6 103.2,-144.3 0.2,-0.1 0.4,-0.2 0.6,-0.3 6.1,-1.7 10.9,-6.8 12,-13.4 8.8,-52.9 54.7,-106.4 110.1,-106.4 22.7,0 44.4,6.9 62.9,19.9 1.8,1.7 4,3.1 6.6,4 v 0 c 9.7,3.6 20.5,-0.9 24.8,-10.3 C 407.4,287 491.3,230 575.8,230 c 122.3,0 221.7,99.5 221.7,221.7 0,8.3 -0.4,21.3 -1.2,32.7 -0.7,10.2 6.4,19.2 16.5,20.9 v 0 c 1.8,0.3 3.5,0.3 5.2,0.2 v 0.1 c 72.5,0 132.4,59.9 132.4,132.4 0,70.4 -55.3,127.9 -124.6,131.4 z"
     id="path3829"
     inkscape:connector-curvature="0"
     style="fill:#ffffff" /></g><path
   style="fill:#3b0822;fill-opacity:1;stroke-width:0.71827275"
   d="M 2.099566,152.6882 0,150.58864 V 83.678777 16.768907 L 2.099566,14.66934 4.199133,12.569773 H 14.9448 25.690466 l 0.29825,-4.68382 C 26.425496,1.026392 27.670526,0 35.554506,0 c 7.88397,0 9.129,1.026392 9.56579,7.885953 l 0.29824,4.68382 h 28.922698 28.922696 l 0.29824,-4.68382 C 103.99895,1.026392 105.24398,0 113.12796,0 c 7.88398,0 9.12901,1.026392 9.56579,7.885953 l 0.29824,4.68382 h 10.74567 10.74567 l 2.09956,2.099567 2.09957,2.099567 v 66.90987 66.909863 l -2.09957,2.09956 -2.09956,2.09957 H 74.341234 4.199133 Z M 142.21801,98.044231 V 47.765139 H 74.341234 6.464455 V 98.044231 148.32332 H 74.341234 142.21801 Z M 25.857816,98.403361 V 61.412317 H 74.341234 122.82464 V 98.403361 135.39441 H 74.341234 25.857816 Z m 22.82869,22.446029 -0.20309,-8.08057 -8.08057,-0.20309 -8.08057,-0.2031 v 8.28366 8.28366 h 8.28366 8.28366 z m 22.422498,-0.2031 v -8.28366 l -8.08056,0.2031 -8.080578,0.20309 -0.20309,8.08057 -0.20309,8.08056 h 8.283668 8.28365 z m 22.82869,0.2031 -0.20309,-8.08057 -8.08057,-0.20309 -8.08057,-0.2031 v 8.28366 8.28366 h 8.28366 8.28366 z m 22.422496,-0.2031 v -8.28366 l -8.08057,0.2031 -8.08057,0.20309 -0.203086,8.08057 -0.20309,8.08056 h 8.283656 8.28366 z m -67.673684,-22.422499 0.20309,-8.08056 h -8.28366 -8.28366 v 8.28366 8.283659 l 8.08057,-0.2031 8.08057,-0.20309 z m 22.422498,0.17957 v -8.26013 h -8.26013 -8.260148 v 7.78128 c 0,4.279709 0.21549,7.996779 0.47885,8.260139 0.26337,0.26337 3.980434,0.47885 8.260148,0.47885 h 7.78128 z m 22.82869,-0.17957 0.20309,-8.08056 h -8.28366 -8.28366 v 8.28366 8.283659 l 8.08057,-0.2031 8.08057,-0.20309 z m 22.422496,0.17957 v -8.26013 h -8.26014 -8.260136 v 7.78128 c 0,4.279709 0.215486,7.996779 0.478846,8.260139 0.26337,0.26337 3.98043,0.47885 8.26014,0.47885 h 7.78129 z m -67.673684,-22.805154 -0.20309,-8.08057 -8.08057,-0.20309 -8.08057,-0.20309 v 8.28366 8.28366 h 8.28366 8.28366 z m 22.422498,-0.20309 v -8.28366 l -8.08056,0.20309 -8.080578,0.20309 -0.20309,8.08057 -0.20309,8.08057 h 8.283668 8.28365 z m 22.82869,0.20309 -0.20309,-8.08057 -8.08057,-0.20309 -8.08057,-0.20309 v 8.28366 8.28366 h 8.28366 8.28366 z m 22.422496,-0.20309 v -8.28366 l -8.08057,0.20309 -8.08057,0.20309 -0.203086,8.08057 -0.20309,8.08057 h 8.283656 8.28366 z M 142.21801,30.526592 V 19.034228 h -9.61301 -9.61301 l -0.29824,4.68382 c -0.43678,6.859561 -1.68181,7.885954 -9.56579,7.885954 -7.88398,0 -9.12901,-1.026393 -9.56579,-7.885954 l -0.29824,-4.68382 H 74.341234 45.418536 l -0.29824,4.68382 c -0.43679,6.859561 -1.68182,7.885954 -9.56579,7.885954 -7.88398,0 -9.12901,-1.026393 -9.56579,-7.885954 l -0.29825,-4.68382 H 16.077461 6.464455 V 30.526592 42.018956 H 74.341234 142.21801 Z M 38.786726,15.802001 V 6.105319 h -3.23222 -3.23223 v 9.696682 9.696682 h 3.23223 3.23222 z m 77.573464,0 V 6.105319 h -3.23223 -3.23223 v 9.696682 9.696682 h 3.23223 3.23223 z"
   id="path994"
   inkscape:connector-curvature="0" /></svg>