<?xml version="1.0" encoding="UTF-8" standalone="no"?>
<!-- Svg Vector Icons : http://www.onlinewebfonts.com/icon -->

<svg
   xmlns:dc="http://purl.org/dc/elements/1.1/"
   xmlns:cc="http://creativecommons.org/ns#"
   xmlns:rdf="http://www.w3.org/1999/02/22-rdf-syntax-ns#"
   xmlns:svg="http://www.w3.org/2000/svg"
   xmlns="http://www.w3.org/2000/svg"
   xmlns:sodipodi="http://sodipodi.sourceforge.net/DTD/sodipodi-0.dtd"
   xmlns:inkscape="http://www.inkscape.org/namespaces/inkscape"
   version="1.1"
   x="0px"
   y="0px"
   viewBox="0 0 973.54053 597.76714"
   enable-background="new 0 0 1000 1000"
   xml:space="preserve"
   id="svg3819"
   sodipodi:docname="cloud.svg"
   inkscape:version="0.92.3 (2405546, 2018-03-11)"
   width="973.54053"
   height="597.76715"><defs
   id="defs3823" /><sodipodi:namedview
   pagecolor="#ffffff"
   bordercolor="#666666"
   borderopacity="1"
   objecttolerance="10"
   gridtolerance="10"
   guidetolerance="10"
   inkscape:pageopacity="0"
   inkscape:pageshadow="2"
   inkscape:window-width="1853"
   inkscape:window-height="1025"
   id="namedview3821"
   showgrid="false"
   inkscape:zoom="0.844"
   inkscape:cx="349.87379"
   inkscape:cy="306.98263"
   inkscape:window-x="67"
   inkscape:window-y="27"
   inkscape:window-maximized="1"
   inkscape:current-layer="g821"
   fit-margin-top="0"
   fit-margin-left="0"
   fit-margin-right="0"
   fit-margin-bottom="0" />
<metadata
   id="metadata3813"> Svg Vector Icons : http://www.onlinewebfonts.com/icon <rdf:RDF><cc:Work
     rdf:about=""><dc:format>image/svg+xml</dc:format><dc:type
       rdf:resource="http://purl.org/dc/dcmitype/StillImage" /><dc:title></dc:title></cc:Work></rdf:RDF></metadata>

<g
   id="g821"
   transform="translate(10.087811,9.8368573)"><g
     style="fill:#3b0822;fill-opacity:1"
     transform="matrix(0.77406201,0,0,0.77406201,-7.740747,-147.53692)"
     id="g3817"><path
       style="fill:#3b0822;fill-opacity:1;stroke-width:1.00000012"
       d="m 576.08398,177.91406 c -92.16227,0.0673 -179.98427,52.41667 -230.80183,128.15466 -2.1082,3.02859 -4.09514,6.34275 -6.14543,9.2887 C 288.97684,292.19188 226.15633,300.22636 183.59685,335.54948 153.23081,360.1586 130.95522,394.51221 120.35352,432.0957 39.262027,465.72416 -13.731895,556.98984 -1.2005957,644.12538 8.4678159,723.1696 68.481584,794.36237 145.89797,814.55903 c 33.72249,9.66499 69.12932,7.51624 103.75242,6.9268 18.07031,0.0213 36.14063,0.003 54.21094,-0.009 -0.70536,-21.49278 -1.40728,-42.98568 -2.11133,-64.47851 -47.00686,-2.73347 -94.877,4.85631 -141.10938,-5.53125 C 99.908669,733.61672 55.386522,670.03325 62.574108,606.77339 66.979773,554.34107 102.87226,504.60551 153.17188,487.64844 c 10.70208,-3.6671 21.6852,-10.89329 23.99218,-22.77344 3.6782,-13.26612 5.89639,-27.16154 13.32813,-39.0332 16.84488,-32.6147 50.47625,-59.95002 88.71679,-59.00196 22.97209,0.51872 44.37895,11.7581 63.17579,23.91016 18.14884,5.69327 38.44234,-7.708 42.83007,-25.67383 36.66166,-71.78421 114.41445,-123.91977 195.78125,-122.52539 73.91113,1.27456 145.73199,45.63042 179.57227,111.4668 7.40209,7.10113 18.35814,1.81293 25.98242,-1.7793 12.83406,-4.75433 25.69676,-9.43321 38.4668,-14.35937 C 782.46092,242.39657 680.75869,176.53497 576.08398,177.91406 Z"
       id="path3815"
       inkscape:connector-curvature="0" /></g><g
     style="fill:#3b0822;fill-opacity:1"
     id="g3827"
     transform="matrix(0.77406201,0,0,0.77406201,187.75687,-48.010854)"><path
       style="fill:#3b0822;fill-opacity:1"
       d="m 576.18945,178.57812 c -95.46697,-0.0785 -186.26587,56.10576 -235.90429,136.4629 -1.76673,2.66903 -5.22925,-2.32263 -7.84571,-2.11524 -52.13368,-20.42368 -115.85107,-9.32136 -156.3015,29.97582 -26.50522,23.77508 -45.70111,55.39271 -55.30201,89.62965 C 40.061059,465.91799 -12.96417,556.6046 -0.66015625,643.42188 8.3848132,719.42007 63.865616,788.34087 137.20328,811.3026 c 31.44998,10.55577 65.06828,11.2915 97.87289,9.51046 201.56601,-0.256 403.14976,0.99115 604.70401,-0.70368 80.22108,-8.03237 150.46747,-75.59324 160.46522,-155.79458 9.9427,-66.89793 -20.47504,-138.30185 -76.62713,-176.36777 C 901.46274,472.32145 875.9122,461.46752 849.2168,456.6543 851.83821,354.76313 791.94267,253.64266 700.28332,208.49621 662.04784,188.9565 619.17341,178.31758 576.18945,178.57812 Z m 3.02539,63.38868 c 87.52595,0.23817 171.31548,62.24491 196.49275,146.23938 10.51976,32.59817 11.25825,67.41061 8.66936,101.25671 1.71468,17.25222 19.21815,30.41569 36.25196,28.16602 45.05348,-0.0265 87.19983,29.22091 106.26426,69.54926 18.8853,37.39154 14.37155,84.46429 -9.70345,118.72878 -18.62468,27.75433 -50.04719,47.28788 -83.22615,50.57056 -28.62342,3.17039 -57.49286,-0.31174 -86.26044,0.83426 C 558.30338,756.949 368.8729,758.47001 179.49354,756.25551 115.35586,747.47645 61.61514,687.40407 61.498047,622.42383 59.587796,564.46158 97.141879,506.19024 152.45312,487.30859 c 10.39101,-3.58882 21.26122,-10.21719 23.90235,-21.68554 4.03142,-12.79188 5.25848,-26.24549 12.51367,-37.81836 15.15185,-30.61305 44.17123,-56.64549 78.60352,-60.97657 26.21374,-3.36456 52.57473,8.03337 73.92187,22.97852 18.10153,6.61006 38.71488,-6.79969 43.21444,-24.82325 36.83278,-71.45941 113.23689,-123.84015 194.60587,-123.01659 z"
       id="path3825"
       inkscape:connector-curvature="0" /></g></g><g
   id="g3831"
   transform="matrix(0.77406201,0,0,0.77406201,132.67882,820.83074)"
   style="fill:#ffffff"><path
     d="m 836.8,467.2 c 0.2,-5.8 0.3,-11.1 0.3,-15.3 0,-69.8 -27.2,-135.4 -76.5,-184.8 -49.4,-49.4 -115,-76.5 -184.8,-76.5 -54.1,0 -107.3,18.4 -153.8,53.2 -31.8,23.8 -58.5,54.1 -77.7,87.7 -21.1,-11 -44.5,-16.7 -68.7,-16.7 -38.8,0 -76.1,18 -105,50.7 -19.3,21.8 -33,48.3 -39.7,75.9 C 98.2,454.3 69,476.5 47.9,504.9 23.1,538 10,577.4 10,618.8 10,723.9 95.5,809.4 200.6,809.4 v -0.5 H 819 v 0.3 c 94.3,0 171,-76.7 171,-171 0,-88 -67.6,-161.5 -153.2,-171 z m -11,302.2 v 0 l -636.9,-0.1 c -77.8,-6 -139.3,-71.2 -139.3,-150.6 0,-65.5 41.3,-123.6 103.2,-144.3 0.2,-0.1 0.4,-0.2 0.6,-0.3 6.1,-1.7 10.9,-6.8 12,-13.4 8.8,-52.9 54.7,-106.4 110.1,-106.4 22.7,0 44.4,6.9 62.9,19.9 1.8,1.7 4,3.1 6.6,4 v 0 c 9.7,3.6 20.5,-0.9 24.8,-10.3 C 407.4,287 491.3,230 575.8,230 c 122.3,0 221.7,99.5 221.7,221.7 0,8.3 -0.4,21.3 -1.2,32.7 -0.7,10.2 6.4,19.2 16.5,20.9 v 0 c 1.8,0.3 3.5,0.3 5.2,0.2 v 0.1 c 72.5,0 132.4,59.9 132.4,132.4 0,70.4 -55.3,127.9 -124.6,131.4 z"
     id="path3829"
     inkscape:connector-curvature="0"
     style="fill:#ffffff" /></g></svg>