<?xml version="1.0" encoding="UTF-8" standalone="no"?>
<!-- Svg Vector Icons : http://www.onlinewebfonts.com/icon -->

<svg
   xmlns:dc="http://purl.org/dc/elements/1.1/"
   xmlns:cc="http://creativecommons.org/ns#"
   xmlns:rdf="http://www.w3.org/1999/02/22-rdf-syntax-ns#"
   xmlns:svg="http://www.w3.org/2000/svg"
   xmlns="http://www.w3.org/2000/svg"
   xmlns:sodipodi="http://sodipodi.sourceforge.net/DTD/sodipodi-0.dtd"
   xmlns:inkscape="http://www.inkscape.org/namespaces/inkscape"
   version="1.1"
   x="0px"
   y="0px"
   viewBox="0 0 1000 1000"
   enable-background="new 0 0 1000 1000"
   xml:space="preserve"
   id="svg3819"
   sodipodi:docname="cloud.svg"
   inkscape:version="0.92.3 (2405546, 2018-03-11)"><defs
   id="defs3823" /><sodipodi:namedview
   pagecolor="#ffffff"
   bordercolor="#666666"
   borderopacity="1"
   objecttolerance="10"
   gridtolerance="10"
   guidetolerance="10"
   inkscape:pageopacity="0"
   inkscape:pageshadow="2"
   inkscape:window-width="1853"
   inkscape:window-height="1025"
   id="namedview3821"
   showgrid="false"
   inkscape:zoom="0.844"
   inkscape:cx="500"
   inkscape:cy="612.22225"
   inkscape:window-x="67"
   inkscape:window-y="27"
   inkscape:window-maximized="1"
   inkscape:current-layer="svg3819" />
<metadata
   id="metadata3813"> Svg Vector Icons : http://www.onlinewebfonts.com/icon <rdf:RDF><cc:Work
     rdf:about=""><dc:format>image/svg+xml</dc:format><dc:type
       rdf:resource="http://purl.org/dc/dcmitype/StillImage" /></cc:Work></rdf:RDF></metadata>
<g
   id="g3817"
   transform="matrix(0.77406201,0,0,0.77406201,9.3683875,11.073264)"
   style="fill:#ffffff"><path
     style="stroke-width:0.77406204;fill:#ffffff"
     d="m 13.130859,36.572266 c -41.876754,0 -83.056897,14.242329 -119.050779,41.179687 -24.61517,18.422676 -45.28254,41.876287 -60.14453,67.884767 -16.33271,-8.51468 -34.44739,-12.92578 -53.17969,-12.92578 -30.03361,0 -58.905,13.93231 -81.27539,39.24414 -14.9394,16.87455 -25.54425,37.38784 -30.73047,58.75195 -25.31183,9.9854 -47.91534,27.16898 -64.24805,49.15235 -19.19673,25.62145 -29.33593,56.11984 -29.33593,88.16601 0,81.35392 66.18123,147.53516 147.53515,147.53516 v -0.38672 h 69.86719 l -1.00391,-30.64063 -77.91797,-0.0117 c -60.22202,-4.64437 -107.82812,-55.11369 -107.82812,-116.57421 0,-50.70107 31.96837,-95.67419 79.88281,-111.69727 l 0.46485,-0.23242 c 4.72177,-1.31591 8.43759,-5.26229 9.28906,-10.3711 6.81174,-40.94788 42.34157,-82.36132 85.22461,-82.36132 17.57121,0 34.36735,5.34149 48.6875,15.40429 1.39331,1.31591 3.09681,2.39905 5.10937,3.09571 7.5084,2.78662 15.8688,-0.69648 19.19727,-7.97266 29.10473,-62.62162 94.04879,-106.742187 159.457029,-106.742188 64.720916,0 121.148061,36.003118 150.376951,89.003908 l 29.04102,-10.80078 C 183.13411,127.26134 170.94326,110.58259 156.17773,95.787109 117.93907,57.548446 67.160388,36.572266 13.130859,36.572266 Z"
     transform="matrix(1.2918862,0,0,1.2918862,558.83732,143.3537)"
     id="path3815"
     inkscape:connector-curvature="0" /></g>
<g
   transform="matrix(0.77406201,0,0,0.77406201,204.866,110.59933)"
   id="g3827"
   style="fill:#ffffff"><path
     inkscape:connector-curvature="0"
     id="path3825"
     d="m 836.8,467.2 c 0.2,-5.8 0.3,-11.1 0.3,-15.3 0,-69.8 -27.2,-135.4 -76.5,-184.8 -49.4,-49.4 -115,-76.5 -184.8,-76.5 -54.1,0 -107.3,18.4 -153.8,53.2 -31.8,23.8 -58.5,54.1 -77.7,87.7 -21.1,-11 -44.5,-16.7 -68.7,-16.7 -38.8,0 -76.1,18 -105,50.7 -19.3,21.8 -33,48.3 -39.7,75.9 C 98.2,454.3 69,476.5 47.9,504.9 23.1,538 10,577.4 10,618.8 10,723.9 95.5,809.4 200.6,809.4 v -0.5 H 819 v 0.3 c 94.3,0 171,-76.7 171,-171 0,-88 -67.6,-161.5 -153.2,-171 z m -11,302.2 v 0 l -636.9,-0.1 c -77.8,-6 -139.3,-71.2 -139.3,-150.6 0,-65.5 41.3,-123.6 103.2,-144.3 0.2,-0.1 0.4,-0.2 0.6,-0.3 6.1,-1.7 10.9,-6.8 12,-13.4 8.8,-52.9 54.7,-106.4 110.1,-106.4 22.7,0 44.4,6.9 62.9,19.9 1.8,1.7 4,3.1 6.6,4 v 0 c 9.7,3.6 20.5,-0.9 24.8,-10.3 C 407.4,287 491.3,230 575.8,230 c 122.3,0 221.7,99.5 221.7,221.7 0,8.3 -0.4,21.3 -1.2,32.7 -0.7,10.2 6.4,19.2 16.5,20.9 v 0 c 1.8,0.3 3.5,0.3 5.2,0.2 v 0.1 c 72.5,0 132.4,59.9 132.4,132.4 0,70.4 -55.3,127.9 -124.6,131.4 z"
     style="fill:#ffffff" /></g><g
   id="g3831"
   transform="matrix(0.77406201,0,0,0.77406201,139.70014,969.60407)"
   style="fill:#ffffff"><path
     d="m 836.8,467.2 c 0.2,-5.8 0.3,-11.1 0.3,-15.3 0,-69.8 -27.2,-135.4 -76.5,-184.8 -49.4,-49.4 -115,-76.5 -184.8,-76.5 -54.1,0 -107.3,18.4 -153.8,53.2 -31.8,23.8 -58.5,54.1 -77.7,87.7 -21.1,-11 -44.5,-16.7 -68.7,-16.7 -38.8,0 -76.1,18 -105,50.7 -19.3,21.8 -33,48.3 -39.7,75.9 C 98.2,454.3 69,476.5 47.9,504.9 23.1,538 10,577.4 10,618.8 10,723.9 95.5,809.4 200.6,809.4 v -0.5 H 819 v 0.3 c 94.3,0 171,-76.7 171,-171 0,-88 -67.6,-161.5 -153.2,-171 z m -11,302.2 v 0 l -636.9,-0.1 c -77.8,-6 -139.3,-71.2 -139.3,-150.6 0,-65.5 41.3,-123.6 103.2,-144.3 0.2,-0.1 0.4,-0.2 0.6,-0.3 6.1,-1.7 10.9,-6.8 12,-13.4 8.8,-52.9 54.7,-106.4 110.1,-106.4 22.7,0 44.4,6.9 62.9,19.9 1.8,1.7 4,3.1 6.6,4 v 0 c 9.7,3.6 20.5,-0.9 24.8,-10.3 C 407.4,287 491.3,230 575.8,230 c 122.3,0 221.7,99.5 221.7,221.7 0,8.3 -0.4,21.3 -1.2,32.7 -0.7,10.2 6.4,19.2 16.5,20.9 v 0 c 1.8,0.3 3.5,0.3 5.2,0.2 v 0.1 c 72.5,0 132.4,59.9 132.4,132.4 0,70.4 -55.3,127.9 -124.6,131.4 z"
     id="path3829"
     inkscape:connector-curvature="0"
     style="fill:#ffffff" /></g></svg>