<?xml version="1.0" encoding="UTF-8" standalone="no"?>
<!-- Svg Vector Icons : http://www.onlinewebfonts.com/icon -->

<svg
   xmlns:dc="http://purl.org/dc/elements/1.1/"
   xmlns:cc="http://creativecommons.org/ns#"
   xmlns:rdf="http://www.w3.org/1999/02/22-rdf-syntax-ns#"
   xmlns:svg="http://www.w3.org/2000/svg"
   xmlns="http://www.w3.org/2000/svg"
   xmlns:sodipodi="http://sodipodi.sourceforge.net/DTD/sodipodi-0.dtd"
   xmlns:inkscape="http://www.inkscape.org/namespaces/inkscape"
   version="1.1"
   x="0px"
   y="0px"
   viewBox="0 0 963.87067 588.31048"
   enable-background="new 0 0 1000 1000"
   xml:space="preserve"
   id="svg3819"
   sodipodi:docname="cloud.svg"
   inkscape:version="0.92.3 (2405546, 2018-03-11)"
   width="963.87067"
   height="588.31049"><defs
   id="defs3823" /><sodipodi:namedview
   pagecolor="#ffffff"
   bordercolor="#666666"
   borderopacity="1"
   objecttolerance="10"
   gridtolerance="10"
   guidetolerance="10"
   inkscape:pageopacity="0"
   inkscape:pageshadow="2"
   inkscape:window-width="1853"
   inkscape:window-height="1025"
   id="namedview3821"
   showgrid="false"
   inkscape:zoom="0.844"
   inkscape:cx="544.61895"
   inkscape:cy="302.26938"
   inkscape:window-x="67"
   inkscape:window-y="27"
   inkscape:window-maximized="1"
   inkscape:current-layer="g821"
   fit-margin-top="0"
   fit-margin-left="0"
   fit-margin-right="0"
   fit-margin-bottom="0" />
<metadata
   id="metadata3813"> Svg Vector Icons : http://www.onlinewebfonts.com/icon <rdf:RDF><cc:Work
     rdf:about=""><dc:format>image/svg+xml</dc:format><dc:type
       rdf:resource="http://purl.org/dc/dcmitype/StillImage" /><dc:title></dc:title></cc:Work></rdf:RDF></metadata>

<g
   id="g821"
   transform="translate(5.1884217,5.0934331)"><g
     style="fill:#3b0822;fill-opacity:1"
     transform="matrix(0.77406201,0,0,0.77406201,-7.740747,-147.53692)"
     id="g3817"><path
       style="fill:#3b0822;fill-opacity:1;stroke-width:1.00000012"
       d="m 573.24023,184.0293 c -91.39908,0.72655 -177.37674,54.65568 -226.3164,130.45898 -2.19269,2.30163 -3.17159,7.54864 -5.96289,8.00195 -46.18526,-21.97602 -104.59267,-18.79628 -145.98242,12.25586 -34.28178,24.29413 -58.90759,61.28952 -69.62305,101.78907 C 53.975505,465.22456 3.3382115,539.15055 3.3344228,616.22645 1.8756089,688.19129 43.546686,759.14073 107.36882,792.56383 c 34.3572,18.6464 74.22233,25.97428 113.0511,22.89861 25.74739,0.0288 51.49481,0.0762 77.24219,0.02 -0.57632,-17.56638 -1.1543,-35.13271 -1.72656,-52.69922 -40.29008,-1.06628 -80.80462,1.98754 -120.90685,-1.82312 C 118.22345,751.2292 70.120571,704.4783 59.052734,647.97852 47.193832,591.81747 71.857228,528.89463 120.38993,497.53801 c 13.11723,-8.90736 28.14053,-14.41157 42.47921,-20.78996 11.1946,-8.3802 9.30157,-24.00546 14.48242,-35.625 13.1933,-37.3144 43.59495,-70.61632 83.41992,-78.84766 28.49485,-5.28487 57.75337,4.60077 80.42383,21.58789 14.85645,7.03936 33.49201,-3.52022 37.3662,-18.95935 36.43147,-72.91066 112.92225,-126.71921 195.19044,-128.35901 76.7227,-1.41414 152.73263,42.39749 189.40821,109.88477 0.83045,5.5643 7.41473,6.57896 11.57226,4.03515 13.89115,-5.63284 28.08982,-10.49318 42.0918,-15.84765 -40.81384,-85.28251 -129.83663,-145.59632 -224.50741,-150.09812 -6.35044,-0.38548 -12.71466,-0.53762 -19.07658,-0.48977 z"
       id="path3815"
       inkscape:connector-curvature="0" /></g><g
     style="fill:#3b0822;fill-opacity:1"
     id="g3827"
     transform="matrix(0.77406201,0,0,0.77406201,187.75687,-48.010854)"><path
       style="fill:#3b0822;fill-opacity:1"
       d="m 573.22461,184.61328 c -90.99061,0.76521 -176.69182,54.28396 -225.46484,129.76563 -2.37408,2.71483 -3.64427,8.00771 -6.74805,8.78906 -45.06941,-21.4799 -101.87734,-19.23469 -142.9707,10.18164 C 162.35265,357.51926 136.77683,395.44109 125.8457,436.9707 55.924253,465.01014 5.7491496,536.43436 4.0203706,611.88124 1.3577733,679.24999 36.019055,746.85557 92.933082,783.23608 c 36.281158,23.90577 80.554558,35.17738 123.848168,31.58261 204.98944,0.0935 409.99021,0.22152 614.97266,-0.0628 60.71673,-3.74217 117.45483,-41.85981 144.92957,-95.97254 25.95112,-50.04348 25.63932,-112.46189 -0.67072,-162.30388 -26.06168,-50.09879 -76.89463,-86.87549 -133.00104,-94.5478 3.45333,-81.38911 -32.7981,-163.41781 -95.72852,-215.25391 -48.25959,-40.35029 -111.06307,-63.20305 -174.05859,-62.06445 z m 5.9668,51.37891 c 77.54967,0.37775 153.12551,47.24898 188.24025,116.65015 20.34839,39.22649 27.62861,84.32376 22.916,128.04907 -1.16016,11.03392 3.40595,23.39619 14.05664,28.11914 12.95987,5.37657 27.4873,1.5004 40.73826,5.66575 52.66308,11.57093 95.50099,59.51311 98.9258,113.67604 3.5259,43.21762 -16.97508,88.29431 -53.26122,112.8363 -24.54988,17.28729 -55.37467,24.79038 -85.04933,22.40626 -206.77372,-0.2258 -413.55965,0.34629 -620.32568,-0.42019 C 123.71567,757.41332 68.832834,707.31611 58.07081,645.88214 47.206796,590.05741 71.80222,528.45905 119.85938,497.25586 c 12.84879,-8.68167 27.26676,-14.63241 41.6582,-20.26953 12.00575,-7.89387 10.09939,-24.12949 15.2207,-35.91016 12.68724,-35.86551 40.8711,-67.69036 78.24024,-78.1289 29.60148,-7.54689 61.65712,1.61007 85.66992,20.00195 13.80681,7.1348 32.28318,-1.63443 36.44054,-16.38502 36.98353,-75.59754 116.8984,-131.5457 202.10243,-130.57201 z"
       id="path3825"
       inkscape:connector-curvature="0" /></g></g><g
   id="g3831"
   transform="matrix(0.77406201,0,0,0.77406201,127.77943,816.08732)"
   style="fill:#ffffff"><path
     d="m 836.8,467.2 c 0.2,-5.8 0.3,-11.1 0.3,-15.3 0,-69.8 -27.2,-135.4 -76.5,-184.8 -49.4,-49.4 -115,-76.5 -184.8,-76.5 -54.1,0 -107.3,18.4 -153.8,53.2 -31.8,23.8 -58.5,54.1 -77.7,87.7 -21.1,-11 -44.5,-16.7 -68.7,-16.7 -38.8,0 -76.1,18 -105,50.7 -19.3,21.8 -33,48.3 -39.7,75.9 C 98.2,454.3 69,476.5 47.9,504.9 23.1,538 10,577.4 10,618.8 10,723.9 95.5,809.4 200.6,809.4 v -0.5 H 819 v 0.3 c 94.3,0 171,-76.7 171,-171 0,-88 -67.6,-161.5 -153.2,-171 z m -11,302.2 v 0 l -636.9,-0.1 c -77.8,-6 -139.3,-71.2 -139.3,-150.6 0,-65.5 41.3,-123.6 103.2,-144.3 0.2,-0.1 0.4,-0.2 0.6,-0.3 6.1,-1.7 10.9,-6.8 12,-13.4 8.8,-52.9 54.7,-106.4 110.1,-106.4 22.7,0 44.4,6.9 62.9,19.9 1.8,1.7 4,3.1 6.6,4 v 0 c 9.7,3.6 20.5,-0.9 24.8,-10.3 C 407.4,287 491.3,230 575.8,230 c 122.3,0 221.7,99.5 221.7,221.7 0,8.3 -0.4,21.3 -1.2,32.7 -0.7,10.2 6.4,19.2 16.5,20.9 v 0 c 1.8,0.3 3.5,0.3 5.2,0.2 v 0.1 c 72.5,0 132.4,59.9 132.4,132.4 0,70.4 -55.3,127.9 -124.6,131.4 z"
     id="path3829"
     inkscape:connector-curvature="0"
     style="fill:#ffffff" /></g></svg>