<?xml version="1.0" encoding="UTF-8" standalone="no"?>
<!-- Svg Vector Icons : http://www.onlinewebfonts.com/icon -->

<svg
   xmlns:dc="http://purl.org/dc/elements/1.1/"
   xmlns:cc="http://creativecommons.org/ns#"
   xmlns:rdf="http://www.w3.org/1999/02/22-rdf-syntax-ns#"
   xmlns:svg="http://www.w3.org/2000/svg"
   xmlns="http://www.w3.org/2000/svg"
   xmlns:sodipodi="http://sodipodi.sourceforge.net/DTD/sodipodi-0.dtd"
   xmlns:inkscape="http://www.inkscape.org/namespaces/inkscape"
   version="1.1"
   x="0px"
   y="0px"
   viewBox="0 0 214.00383 177.58972"
   enable-background="new 0 0 1000 1000"
   xml:space="preserve"
   id="svg3819"
   sodipodi:docname="heart.svg"
   inkscape:version="0.92.3 (2405546, 2018-03-11)"
   width="214.00383"
   height="177.58972"><defs
   id="defs3823" /><sodipodi:namedview
   pagecolor="#ffffff"
   bordercolor="#666666"
   borderopacity="1"
   objecttolerance="10"
   gridtolerance="10"
   guidetolerance="10"
   inkscape:pageopacity="0"
   inkscape:pageshadow="2"
   inkscape:window-width="1853"
   inkscape:window-height="1025"
   id="namedview3821"
   showgrid="false"
   inkscape:zoom="1.688"
   inkscape:cx="52.780776"
   inkscape:cy="78.3691"
   inkscape:window-x="67"
   inkscape:window-y="27"
   inkscape:window-maximized="1"
   inkscape:current-layer="svg3819"
   fit-margin-top="0"
   fit-margin-left="0"
   fit-margin-right="0"
   fit-margin-bottom="0" />
<metadata
   id="metadata3813"> Svg Vector Icons : http://www.onlinewebfonts.com/icon <rdf:RDF><cc:Work
     rdf:about=""><dc:format>image/svg+xml</dc:format><dc:type
       rdf:resource="http://purl.org/dc/dcmitype/StillImage" /><dc:title></dc:title></cc:Work></rdf:RDF></metadata>

<g
   id="g3831"
   transform="matrix(0.77406201,0,0,0.77406201,-259.49166,643.28902)"
   style="fill:#ffffff"><path
     d="m 836.8,467.2 c 0.2,-5.8 0.3,-11.1 0.3,-15.3 0,-69.8 -27.2,-135.4 -76.5,-184.8 -49.4,-49.4 -115,-76.5 -184.8,-76.5 -54.1,0 -107.3,18.4 -153.8,53.2 -31.8,23.8 -58.5,54.1 -77.7,87.7 -21.1,-11 -44.5,-16.7 -68.7,-16.7 -38.8,0 -76.1,18 -105,50.7 -19.3,21.8 -33,48.3 -39.7,75.9 C 98.2,454.3 69,476.5 47.9,504.9 23.1,538 10,577.4 10,618.8 10,723.9 95.5,809.4 200.6,809.4 v -0.5 H 819 v 0.3 c 94.3,0 171,-76.7 171,-171 0,-88 -67.6,-161.5 -153.2,-171 z m -11,302.2 v 0 l -636.9,-0.1 c -77.8,-6 -139.3,-71.2 -139.3,-150.6 0,-65.5 41.3,-123.6 103.2,-144.3 0.2,-0.1 0.4,-0.2 0.6,-0.3 6.1,-1.7 10.9,-6.8 12,-13.4 8.8,-52.9 54.7,-106.4 110.1,-106.4 22.7,0 44.4,6.9 62.9,19.9 1.8,1.7 4,3.1 6.6,4 v 0 c 9.7,3.6 20.5,-0.9 24.8,-10.3 C 407.4,287 491.3,230 575.8,230 c 122.3,0 221.7,99.5 221.7,221.7 0,8.3 -0.4,21.3 -1.2,32.7 -0.7,10.2 6.4,19.2 16.5,20.9 v 0 c 1.8,0.3 3.5,0.3 5.2,0.2 v 0.1 c 72.5,0 132.4,59.9 132.4,132.4 0,70.4 -55.3,127.9 -124.6,131.4 z"
     id="path3829"
     inkscape:connector-curvature="0"
     style="fill:#ffffff" /></g><path
   style="fill:#3b0822;fill-opacity:1;stroke-width:0.89385861"
   d="M 68.858754,150.45494 C 30.101424,112.14446 17.807468,97.847939 8.7098174,80.508329 2.4692634,68.614199 0.50487932,61.242838 0.59538332,50.058908 0.68443332,39.054798 3.1845584,30.546118 8.6684924,22.583693 22.763003,2.1190905 52.439655,-4.8234766 76.02329,6.8266854 82.528312,10.040125 93.03843,19.183205 96.92104,25.006295 l 1.47359,2.210073 1.473581,-2.210073 c 0.810469,-1.215539 4.342789,-5.06893 7.849579,-8.563092 6.89905,-6.8741976 15.40744,-11.6494006 24.64346,-13.8307606 6.42316,-1.5170199 19.71448,-1.5319509 25.9219,-0.02912 7.68813,1.861318 17.26659,6.825577 22.63277,11.7299696 10.13711,9.264754 15.12269,20.791716 15.26719,35.298686 0.049,4.91622 -0.22031,10.04474 -0.59839,11.3967 l -0.68742,2.458111 h -8.99259 -8.99257 l 0.74141,-2.905041 c 0.40779,-1.59777 0.73066,-6.52517 0.71751,-10.94977 -0.0187,-6.29664 -0.44201,-8.96096 -1.94797,-12.26126 -2.68784,-5.89038 -9.3972,-12.736933 -15.34539,-15.659173 -4.52336,-2.222245 -5.97319,-2.470753 -14.41471,-2.470753 -8.93987,0 -9.6823,0.14855 -15.63581,3.128505 -8.12164,4.065184 -18.82519,14.615781 -26.16117,25.787331 -3.01829,4.5964 -5.70912,8.81988 -5.9796,9.38551 -0.37075,0.77534 -0.61281,0.77534 -0.98357,0 -0.27048,-0.56563 -2.9545,-4.78912 -5.96448,-9.38551 C 84.460733,36.717908 73.826161,26.198824 65.787583,22.269827 59.893189,19.388838 59.031049,19.22079 50.145058,19.22079 c -8.459954,0 -9.909164,0.247929 -14.431852,2.468985 -5.980528,2.93699 -12.696674,9.811983 -15.29909,15.660943 -2.614438,5.87598 -3.134487,16.21081 -1.15787,23.01014 5.366168,18.458981 22.370046,39.553761 65.918958,81.778202 l 13.149406,12.74949 14.97042,-14.5103 14.97043,-14.51031 4.05908,8.22497 4.05908,8.22497 -18.61692,18.22834 c -10.23931,10.02558 -18.98616,18.22833 -19.43746,18.22833 -0.45131,0 -13.713023,-12.74382 -29.470486,-28.31961 z m 80.271906,-24.19458 c -0.76166,-0.86034 -5.98562,-10.77789 -11.6088,-22.03899 l -10.22395,-20.474751 -4.76189,6.88832 c -2.61904,3.78857 -5.47571,7.27034 -6.34816,7.73726 -0.87244,0.46691 -5.82691,0.84894 -11.00993,0.84894 -8.85984,0 -9.50464,0.12358 -10.77707,2.065561 -4.15279,6.33795 -15.499457,8.34499 -22.844103,4.04074 -11.328028,-6.638671 -11.328028,-23.451101 0,-30.089771 7.344646,-4.30425 18.691313,-2.29722 22.844103,4.04073 1.17866,1.79887 2.08552,2.06557 7.02361,2.06557 h 5.6702 l 8.85981,-12.7249 c 13.7317,-19.722171 14.08189,-19.625901 27.68822,7.61191 5.21133,10.43229 9.89326,19.484 10.40427,20.11492 0.70025,0.86457 1.79791,-0.45644 4.45637,-5.36315 5.59696,-10.33031 3.32909,-9.63878 31.61081,-9.63878 h 24.48209 v 8.93858 8.93859 l -20.33528,0.024 -20.33528,0.0241 -7.5978,12.687581 c -4.17879,6.97817 -8.30171,13.40311 -9.16205,14.27766 -1.99995,2.03296 -6.24616,2.04661 -8.03517,0.0258 z"
   id="path962"
   inkscape:connector-curvature="0" /></svg>