<?xml version="1.0" encoding="UTF-8" standalone="no"?>
<!-- Created with Inkscape (http://www.inkscape.org/) -->

<svg
   xmlns:dc="http://purl.org/dc/elements/1.1/"
   xmlns:cc="http://creativecommons.org/ns#"
   xmlns:rdf="http://www.w3.org/1999/02/22-rdf-syntax-ns#"
   xmlns:svg="http://www.w3.org/2000/svg"
   xmlns="http://www.w3.org/2000/svg"
   xmlns:sodipodi="http://sodipodi.sourceforge.net/DTD/sodipodi-0.dtd"
   xmlns:inkscape="http://www.inkscape.org/namespaces/inkscape"
   width="160.99287mm"
   height="132.02734mm"
   viewBox="0 0 160.99288 132.02735"
   version="1.1"
   id="svg8"
   inkscape:version="0.92.3 (2405546, 2018-03-11)"
   sodipodi:docname="stone.svg">
  <defs
     id="defs2" />
  <sodipodi:namedview
     id="base"
     pagecolor="#ffffff"
     bordercolor="#666666"
     borderopacity="1.0"
     inkscape:pageopacity="0.0"
     inkscape:pageshadow="2"
     inkscape:zoom="0.98994949"
     inkscape:cx="234.86645"
     inkscape:cy="129.9047"
     inkscape:document-units="mm"
     inkscape:current-layer="layer1"
     showgrid="false"
     inkscape:window-width="1458"
     inkscape:window-height="1023"
     inkscape:window-x="181"
     inkscape:window-y="27"
     inkscape:window-maximized="0"
     fit-margin-top="0"
     fit-margin-left="0"
     fit-margin-right="0"
     fit-margin-bottom="0" />
  <metadata
     id="metadata5">
    <rdf:RDF>
      <cc:Work
         rdf:about="">
        <dc:format>image/svg+xml</dc:format>
        <dc:type
           rdf:resource="http://purl.org/dc/dcmitype/StillImage" />
        <dc:title></dc:title>
      </cc:Work>
    </rdf:RDF>
  </metadata>
  <g
     inkscape:label="Calque 1"
     inkscape:groupmode="layer"
     id="layer1"
     transform="translate(-66.229783,-116.99414)">
    <path
       style="fill:#3b0822;fill-opacity:1;stroke-width:0.36786321"
       d="m 155.97461,116.99414 c -10.21087,3.82322 -20.01917,8.93254 -30.05078,13.2832 -8.0507,-2.37181 -15.88498,-8.93869 -24.69128,-6.10006 -7.025179,1.75799 -14.920455,1.58172 -21.379034,5.01413 -2.930827,4.25307 -4.36548,9.67792 -6.525391,14.32617 -0.02893,5.3286 1.153131,10.87274 -3.433594,14.47265 -2.197261,7.22667 -5.727359,15.00514 -2.105673,22.35693 4.532941,15.5871 8.101048,31.56705 13.441611,46.86182 6.987445,6.30443 15.037251,11.67842 23.197261,16.36133 17.68184,2.06542 35.46986,4.2373 53.22266,5.45117 7.86892,-2.7258 14.22668,-8.99642 21.5485,-12.95139 12.13183,-8.12549 24.84506,-15.56059 36.59213,-24.1697 3.94852,-6.35057 8.97215,-12.48736 11.43164,-19.5332 -1.23505,-18.05209 -1.84309,-36.26386 -4.36328,-54.16797 -3.78033,-5.43853 -11.14333,-7.15516 -16.38679,-10.8883 -8.62187,-5.91987 -19.69665,-4.86416 -29.48386,-7.28286 -6.99806,-1.02053 -13.97415,-2.36377 -21.01412,-3.03392 z m 9.13672,8.89453 c 11.17657,2.01562 22.7411,3.41115 33.73242,5.96289 3.98606,2.51523 9.7637,5.00851 12.69141,7.65039 -7.4415,5.06995 -15.24192,10.01915 -22.81836,15.04297 -7.75839,-5.03416 -15.25168,-10.5107 -23.24414,-15.16992 -0.43913,-4.20198 -4.21894,-11.43049 -2.62175,-13.84517 0.75348,0.11962 1.50695,0.23923 2.26042,0.35884 z m -10.86524,0.75781 c 0.7973,5.30998 4.12548,10.70088 3.61763,15.99493 -2.64279,4.83338 -2.56373,12.719 -9.41807,13.10262 -7.40481,2.45544 -14.79529,4.95374 -22.21713,7.35753 1.44486,-8.64237 1.56903,-18.30209 3.67187,-26.42773 8.08158,-3.50641 16.04653,-7.27692 24.13281,-10.77344 z m -39.76953,7.28711 c 5.88206,0.94745 8.13947,4.06189 6.02172,9.68325 -0.74442,5.96574 -1.50449,11.92981 -2.31469,17.88707 -9.9143,-7.25178 -19.716733,-14.65502 -29.566402,-21.99414 -3.320468,-6.03139 2.327502,-5.99293 6.878534,-6.63909 6.094228,-1.03065 12.343528,-3.39895 17.899848,0.61732 l 0.92453,0.3811 z m -32.425779,9.05664 c 5.111594,6.15523 12.943502,9.88221 18.999999,15.16602 5.30339,3.95703 10.60677,7.91406 15.91016,11.87109 -6.24792,14.40744 -12.21647,29.0913 -18.537112,43.38086 -3.844844,2.03007 -8.232179,4.3889 -11.955078,5.64844 -4.076615,-15.7094 -9.439859,-31.41649 -12.552975,-47.1729 1.056115,-5.4106 2.183563,-10.57063 6.125241,-14.50874 2.220824,-4.3473 -0.455308,-11.22849 2.009765,-14.38477 z m 134.423829,7.07032 c 0.65544,13.94126 2.74132,28.12367 2.52148,41.92578 -1.72185,3.34481 -3.84187,6.46256 -5.79882,9.66992 -6.59777,-13.69774 -13.06159,-27.46249 -19.29493,-41.33008 7.38379,-4.89918 14.79204,-9.72306 22.2461,-14.51172 0.10872,1.41537 0.21745,2.83073 0.32617,4.2461 z m -52.21289,-2.39649 c 6.64728,4.14179 13.17961,8.3395 19.66406,12.74219 -1.02638,3.23716 -2.23727,6.41542 -3.56836,9.53906 -6.66913,-4.54134 -13.25675,-9.12144 -19.82422,-13.8125 1.18234,-2.64447 2.24627,-6.40023 3.72852,-8.46875 z M 167,170.0332 c 5.49238,4.46252 13.75382,6.94515 13.99742,15.16056 0.5841,5.52628 5.52781,11.81474 3.22237,16.83504 -9.35239,12.74874 -18.56848,25.57682 -28.07721,38.18604 -16.4504,-8.48962 -33.34112,-16.95132 -49.44727,-25.60742 5.53556,-14.29429 11.60316,-28.37426 17.43946,-42.54687 10.34962,-3.43291 20.69988,-6.86391 31.05078,-10.29297 3.93815,2.75521 7.8763,5.51041 11.81445,8.26562 z m 23.44141,1.55274 c 5.8716,12.19819 11.64411,24.42065 17.3164,36.70312 -11.82264,7.65981 -23.64355,15.32199 -35.47461,22.96875 6.98235,-9.97912 14.84121,-19.49192 20.97266,-29.99609 -1.58303,-8.75866 -5.52991,-17.37416 -6.4723,-25.98189 1.40518,-1.22032 1.89981,-10.33345 3.65785,-3.69389 z m -67.02344,60.44531 c 3.15377,1.87518 15.80027,7.65669 13.29875,7.26758 -10.23036,-1.30514 -20.7077,-1.84072 -30.76555,-3.67383 -4.93921,-3.16675 -9.747863,-6.53515 -14.515623,-9.95312 4.789883,-1.83002 9.694753,-7.23479 14.453963,-2.65802 5.84282,3.00579 11.68564,6.01159 17.52846,9.01739 z"
       id="path925"
       inkscape:connector-curvature="0" />
  </g>
</svg>
