<?xml version="1.0" encoding="UTF-8" standalone="no"?>
<!-- Created with Inkscape (http://www.inkscape.org/) -->

<svg
   xmlns:dc="http://purl.org/dc/elements/1.1/"
   xmlns:cc="http://creativecommons.org/ns#"
   xmlns:rdf="http://www.w3.org/1999/02/22-rdf-syntax-ns#"
   xmlns:svg="http://www.w3.org/2000/svg"
   xmlns="http://www.w3.org/2000/svg"
   xmlns:sodipodi="http://sodipodi.sourceforge.net/DTD/sodipodi-0.dtd"
   xmlns:inkscape="http://www.inkscape.org/namespaces/inkscape"
   width="64.048233mm"
   height="52.152534mm"
   viewBox="0 0 64.048234 52.152535"
   version="1.1"
   id="svg8"
   inkscape:version="0.92.3 (2405546, 2018-03-11)"
   sodipodi:docname="stone.svg">
  <defs
     id="defs2" />
  <sodipodi:namedview
     id="base"
     pagecolor="#ffffff"
     bordercolor="#666666"
     borderopacity="1.0"
     inkscape:pageopacity="0.0"
     inkscape:pageshadow="2"
     inkscape:zoom="0.98994949"
     inkscape:cx="33.494966"
     inkscape:cy="-88.909142"
     inkscape:document-units="mm"
     inkscape:current-layer="layer1"
     showgrid="false"
     inkscape:window-width="1458"
     inkscape:window-height="1023"
     inkscape:window-x="181"
     inkscape:window-y="232"
     inkscape:window-maximized="0"
     fit-margin-top="0"
     fit-margin-left="0"
     fit-margin-right="0"
     fit-margin-bottom="0" />
  <metadata
     id="metadata5">
    <rdf:RDF>
      <cc:Work
         rdf:about="">
        <dc:format>image/svg+xml</dc:format>
        <dc:type
           rdf:resource="http://purl.org/dc/dcmitype/StillImage" />
        <dc:title></dc:title>
      </cc:Work>
    </rdf:RDF>
  </metadata>
  <g
     inkscape:label="Calque 1"
     inkscape:groupmode="layer"
     id="layer1"
     transform="translate(-67.877567,-118.98859)">
    <path
       style="fill:#3b0822;fill-opacity:1;stroke-width:0.14974095"
       d="m 93.596185,170.10012 c -5.353239,-0.56314 -10.015151,-1.06458 -10.359805,-1.11433 -0.500529,-0.0722 -1.482665,-0.69104 -4.880013,-3.07474 -3.612755,-2.53483 -4.290705,-3.06931 -4.501258,-3.54864 -0.230725,-0.52525 -2.372819,-8.13474 -4.898461,-17.40109 l -1.079081,-3.95905 0.637221,-2.62955 c 0.350472,-1.44626 0.724237,-2.79802 0.830588,-3.00391 0.106351,-0.20589 0.501996,-0.67476 0.879211,-1.04193 l 0.685844,-0.66758 v -2.34296 -2.34297 l 1.026376,-2.30526 c 0.564507,-1.26789 1.072424,-2.45057 1.128705,-2.62818 0.05803,-0.18312 0.342982,-0.41911 0.658209,-0.54511 0.95634,-0.38226 9.110297,-1.90498 10.168302,-1.8989 0.342651,0.002 1.37618,0.33477 2.591467,0.83446 1.111826,0.45716 2.701431,1.10278 3.532456,1.43472 l 1.510954,0.60354 5.901223,-2.68779 c 3.245677,-1.47829 6.088537,-2.73362 6.317467,-2.78964 0.40025,-0.0979 17.17168,2.58286 17.86271,2.85523 0.16823,0.0663 2.04562,1.09762 4.17198,2.2918 2.69204,1.51188 3.98071,2.32062 4.24347,2.66313 0.37485,0.48861 0.3827,0.56229 1.18119,11.08083 0.4421,5.82392 0.76434,10.81774 0.71607,11.09738 -0.0813,0.47087 -4.18524,7.13101 -4.61275,7.4858 -0.51488,0.42732 -21.95048,14.31411 -22.36439,14.4885 -0.26501,0.11166 -0.7367,0.19562 -1.04818,0.18658 -0.31149,-0.009 -4.946271,-0.47719 -10.299505,-1.04034 z m 15.985625,-8.18973 c 2.99642,-4.09728 5.8027,-7.93835 6.23617,-8.53569 l 0.78814,-1.08608 -1.3852,-4.79497 -1.3852,-4.79497 -5.14345,-3.5993 -5.14345,-3.59929 -6.690744,2.21791 -6.690743,2.21791 -3.823233,9.19751 c -2.102777,5.05863 -3.75709,9.22043 -3.676248,9.24844 0.08084,0.028 4.897516,2.50642 10.703721,5.50756 5.806206,3.00114 10.602967,5.45977 10.659467,5.4636 0.0565,0.004 2.55434,-3.34534 5.55077,-7.44263 z m -9.34254,7.22958 c -0.0387,-0.0387 -4.2595,-2.22559 -9.379639,-4.85984 l -9.309342,-4.78954 -2.774333,1.35605 c -1.525883,0.74583 -2.771881,1.39978 -2.768884,1.45323 0.01042,0.18576 7.029636,5.03897 7.366875,5.09359 0.619533,0.10033 16.054212,1.78539 16.498882,1.80124 0.240211,0.009 0.405111,-0.0161 0.366441,-0.0547 z m 16.41702,-7.54451 c 5.02381,-3.25302 9.15599,-5.93012 9.18262,-5.94912 0.0266,-0.019 -1.8938,-4.14524 -4.26762,-9.16941 -2.37382,-5.02418 -4.34893,-9.10235 -4.38913,-9.0626 -0.0402,0.0397 -0.48582,1.14267 -0.99025,2.45094 l -0.91715,2.37867 1.39913,4.91049 c 0.76952,2.70077 1.40044,5.06476 1.40204,5.2533 0.002,0.27124 -6.32566,9.12196 -10.61605,14.84835 -0.21285,0.2841 -0.28593,0.45746 -0.1624,0.38525 0.12354,-0.0722 4.335,-2.79286 9.35881,-6.04587 z m -36.798837,-2.99738 c 0.679449,-0.34195 1.235362,-0.67968 1.235362,-0.75051 0,-0.0708 1.746911,-4.22911 3.882026,-9.24063 l 3.882025,-9.11186 -6.98915,-5.21575 c -3.844033,-2.86866 -7.114952,-5.33979 -7.268709,-5.49141 -0.153758,-0.15162 -0.397217,-0.77129 -0.54102,-1.37705 l -0.26146,-1.10139 -0.694343,1.45753 -0.694344,1.45753 v 2.16394 c 0,1.19017 -0.07115,2.35363 -0.158111,2.58548 -0.08696,0.23184 -0.489081,0.75845 -0.8936,1.17024 l -0.735487,0.7487 -0.610626,2.51677 -0.610626,2.51676 0.617976,2.27495 c 0.927453,3.41422 4.31038,15.60754 4.647463,16.75117 l 0.294613,0.99954 1.831323,-0.86614 c 1.007228,-0.47638 2.387238,-1.14592 3.066688,-1.48787 z m 48.981777,-7.31843 c 0.94903,-1.52036 1.52005,-2.58716 1.52285,-2.84508 0.006,-0.52 -1.38261,-19.86335 -1.42986,-19.92276 -0.0349,-0.0439 -10.51974,6.7853 -10.75274,7.0037 -0.0922,0.0864 7.03174,15.37318 8.53976,18.32488 0.26053,0.50995 0.0276,0.79136 2.11999,-2.56074 z m -13.70585,-13.0181 c 0.55236,-1.45623 0.95252,-2.69614 0.88925,-2.75536 -0.49846,-0.46653 -9.24912,-6.11022 -9.33322,-6.0194 -0.20043,0.21647 -2.12703,4.84398 -2.04915,4.92186 0.27597,0.27597 9.20219,6.48931 9.32989,6.49433 0.0874,0.003 0.61087,-1.18521 1.16323,-2.64143 z m -18.077564,-2.24837 6.158934,-2.05097 1.14514,-2.77818 c 0.62983,-1.528 1.14414,-2.85625 1.14292,-2.95167 -0.003,-0.2148 -1.95667,-7.44122 -2.03356,-7.52098 -0.0306,-0.0317 -2.52046,1.06326 -5.533054,2.43329 -3.012589,1.37004 -5.541587,2.49098 -5.619992,2.49098 -0.07841,0 -0.142558,0.0638 -0.142558,0.1418 0,0.078 -0.336908,2.85755 -0.748686,6.17681 -0.411775,3.31926 -0.748692,6.05186 -0.748704,6.07245 -5.3e-5,0.0998 0.639711,-0.10212 6.37956,-2.01353 z m -7.277885,-4.29944 c 0.419258,-3.28049 0.742356,-5.98039 0.717992,-5.99975 -0.02437,-0.0194 -1.526734,-0.64675 -3.338599,-1.39417 l -3.294301,-1.35896 -2.845078,0.50731 c -3.589008,0.63995 -5.940978,1.09559 -6.00959,1.1642 -0.02926,0.0293 0.08804,0.7555 0.260657,1.61386 l 0.313857,1.56066 6.668817,4.98327 c 3.667849,2.74079 6.690222,4.96186 6.716385,4.93569 0.02616,-0.0262 0.390601,-2.73161 0.80986,-6.01211 z m 35.621789,-2.74288 c 1.43222,-0.93826 2.54405,-1.75816 2.47072,-1.82199 -0.18021,-0.15687 -6.3749,-3.72176 -6.6522,-3.82817 -0.31699,-0.12164 -16.07606,-2.76723 -16.13465,-2.70864 -0.027,0.027 0.37229,1.66398 0.88723,3.6378 l 0.93627,3.58875 0.67794,0.3585 c 0.37287,0.19717 2.65778,1.68215 5.07758,3.29996 l 4.39962,2.94148 2.86672,-1.88088 c 1.5767,-1.03449 4.03854,-2.64855 5.47077,-3.58681 z"
       id="path925"
       inkscape:connector-curvature="0" />
  </g>
</svg>
