<?xml version="1.0" encoding="UTF-8" standalone="no"?>
<!-- Created with Inkscape (http://www.inkscape.org/) -->

<svg
   xmlns:dc="http://purl.org/dc/elements/1.1/"
   xmlns:cc="http://creativecommons.org/ns#"
   xmlns:rdf="http://www.w3.org/1999/02/22-rdf-syntax-ns#"
   xmlns:svg="http://www.w3.org/2000/svg"
   xmlns="http://www.w3.org/2000/svg"
   xmlns:sodipodi="http://sodipodi.sourceforge.net/DTD/sodipodi-0.dtd"
   xmlns:inkscape="http://www.inkscape.org/namespaces/inkscape"
   width="70.266151mm"
   height="70.368996mm"
   viewBox="0 0 70.266152 70.368997"
   version="1.1"
   id="svg8"
   inkscape:version="0.92.3 (2405546, 2018-03-11)"
   sodipodi:docname="tree.svg">
  <defs
     id="defs2" />
  <sodipodi:namedview
     id="base"
     pagecolor="#ffffff"
     bordercolor="#666666"
     borderopacity="1.0"
     inkscape:pageopacity="0.0"
     inkscape:pageshadow="2"
     inkscape:zoom="0.7"
     inkscape:cx="-1.4837534"
     inkscape:cy="234.47369"
     inkscape:document-units="mm"
     inkscape:current-layer="layer1"
     showgrid="false"
     inkscape:window-width="1458"
     inkscape:window-height="1023"
     inkscape:window-x="232"
     inkscape:window-y="247"
     inkscape:window-maximized="0"
     fit-margin-top="0"
     fit-margin-left="0"
     fit-margin-right="0"
     fit-margin-bottom="0" />
  <metadata
     id="metadata5">
    <rdf:RDF>
      <cc:Work
         rdf:about="">
        <dc:format>image/svg+xml</dc:format>
        <dc:type
           rdf:resource="http://purl.org/dc/dcmitype/StillImage" />
        <dc:title></dc:title>
      </cc:Work>
    </rdf:RDF>
  </metadata>
  <g
     inkscape:label="Calque 1"
     inkscape:groupmode="layer"
     id="layer1"
     transform="translate(-66.120827,-108.78009)">
    <path
       style="fill:#3b0822;fill-opacity:1;stroke-width:0.41745371"
       d="m 80.82975,178.82514 c -0.41103,-0.66507 1.35403,-3.7584 2.71929,-4.76564 0.77119,-0.56896 2.52929,-1.47152 3.90689,-2.00569 3.75524,-1.45611 4.68238,-2.23246 5.01464,-4.1991 0.15753,-0.93243 0.19577,-1.78598 0.085,-1.89678 -0.1108,-0.1108 -1.3792,0.19531 -2.81867,0.68023 -4.24523,1.43012 -8.11007,0.30714 -11.36092,-3.30106 -1.35934,-1.50876 -2.31614,-2.1332 -4.09469,-2.67232 -4.806218,-1.45686 -8.054903,-5.78359 -8.056395,-10.72984 -5.84e-4,-1.93273 0.248603,-3.19474 0.866059,-4.3862 0.842349,-1.62542 0.845878,-1.714 0.124729,-3.1309 -1.211806,-2.38092 -1.41009,-4.68919 -0.632563,-7.36378 0.5594,-1.92427 1.169097,-2.85271 3.139436,-4.78069 1.744554,-1.70704 2.525014,-2.818 2.723704,-3.87711 0.6633,-3.53571 4.16734,-7.13909 7.98045,-8.20669 1.48222,-0.415 2.57968,-1.16279 4.32658,-2.94808 1.88136,-1.9227 2.81292,-2.52934 4.74779,-3.09182 1.32396,-0.38488 2.78639,-0.60062 3.24987,-0.47942 0.53087,0.13882 1.45629,-0.22414 2.50102,-0.98094 3.52269,-2.55183 8.4467,-2.54495 11.98302,0.0167 1.02726,0.74414 1.94853,1.10262 2.4779,0.96419 0.46348,-0.12121 1.92591,0.0945 3.24987,0.47942 1.92626,0.55998 2.87142,1.17256 4.73088,3.0662 1.82756,1.86115 2.84905,2.53099 4.78423,3.13725 3.38877,1.06165 6.14332,3.8162 7.20496,7.20496 0.60626,1.93519 1.2761,2.95668 3.13726,4.78424 3.69063,3.62402 4.54864,7.89415 2.42754,12.08139 -0.72064,1.4226 -0.71707,1.51119 0.12606,3.1309 0.61943,1.18998 0.86722,2.44321 0.86606,4.38033 -0.003,4.94694 -3.25159,9.27317 -8.0572,10.72984 -1.77855,0.53912 -2.73535,1.16356 -4.09469,2.67232 -3.25085,3.60819 -7.11569,4.73117 -11.36092,3.30106 -1.43947,-0.48493 -2.70787,-0.79103 -2.81867,-0.68023 -0.11079,0.1108 -0.0726,0.96435 0.085,1.89678 0.33226,1.96664 1.25939,2.74299 5.01464,4.1991 1.3776,0.53417 3.13569,1.43673 3.90689,2.00569 1.36525,1.00724 3.13032,4.10057 2.71928,4.76563 -0.28246,0.45705 -5.32238,0.41961 -5.81214,-0.0432 -0.21812,-0.2061 -1.87798,-0.98568 -3.68859,-1.73239 -3.8245,-1.57726 -5.9248,-3.26309 -6.99197,-5.61218 -0.65403,-1.43967 -0.76148,-2.8541 -0.76937,-10.12684 l -0.009,-8.45343 h 2.71345 2.71345 v 2.36095 c 0,2.95925 1.22365,4.75434 3.95084,5.79586 3.31271,1.26514 5.99301,0.0858 7.57748,-3.33413 l 0.97295,-2.10002 2.2028,-0.005 c 3.51784,-0.007 6.16861,-2.52217 6.16861,-5.8522 0,-1.3137 -1.27465,-3.89429 -2.44742,-4.9549 l -0.86645,-0.78359 1.44204,-1.6847 c 3.08162,-3.60019 2.20611,-7.80834 -2.01181,-9.66983 l -2.03519,-0.89818 -0.0671,-2.2926 c -0.11419,-3.89984 -2.16525,-5.96504 -6.03685,-6.07847 l -2.24976,-0.0659 -0.94455,-2.03871 c -0.5195,-1.1213 -1.46696,-2.38101 -2.10546,-2.79938 -1.42786,-0.93557 -3.82534,-1.28279 -5.21946,-0.75593 -0.90654,0.3426 -1.24523,0.18601 -2.58607,-1.19563 -2.62827,-2.70825 -5.9837,-2.70084 -8.62326,0.019 -1.32329,1.36357 -1.66204,1.51881 -2.56757,1.17658 -1.35968,-0.51385 -3.92742,-0.16741 -5.26759,0.7107 -0.58394,0.38261 -1.49824,1.63788 -2.03179,2.78949 l -0.97009,2.09383 -2.24976,0.0659 c -3.8716,0.11343 -5.92267,2.17863 -6.03685,6.07848 l -0.0671,2.29259 -2.03519,0.89818 c -2.28863,1.01004 -3.46307,2.49597 -3.76767,4.76698 -0.22769,1.69755 0.83225,4.24286 2.33146,5.59869 l 0.86645,0.78359 -1.44204,1.6847 c -2.573063,3.00604 -2.35931,6.75957 0.50955,8.94767 1.22099,0.93126 1.9587,1.15987 3.75478,1.16358 l 2.23524,0.005 0.97295,2.10001 c 1.58527,3.42165 4.26458,4.59935 7.58167,3.33254 2.59629,-0.99152 3.94666,-3.02943 3.94666,-5.95611 v -2.19909 h 2.71345 2.71344 l -0.009,8.45344 c -0.008,7.27273 -0.11535,8.68716 -0.76938,10.12683 -1.06716,2.34909 -3.16747,4.03492 -6.99196,5.61218 -1.81061,0.74671 -3.47048,1.52629 -3.6886,1.73239 -0.48975,0.46278 -5.52967,0.50022 -5.81214,0.0432 z"
       id="path863"
       inkscape:connector-curvature="0" />
  </g>
</svg>
